<svg xmlns="http://www.w3.org/2000/svg" xmlns:xlink="http://www.w3.org/1999/xlink" xmlns:svgjs="http://svgjs.dev/svgjs" version="1.1" width="1500" height="795" viewBox="0 0 1500 795"><g transform="matrix(1,0,0,1,-0.9090909090909918,0.14850666084862496)"><svg xmlns="http://www.w3.org/2000/svg" xmlns:xlink="http://www.w3.org/1999/xlink" viewBox="0 0 396 210" data-background-color="#00784a" preserveAspectRatio="xMidYMid meet" height="795" width="1500"><g id="tight-bounds" transform="matrix(1,0,0,1,0.2400000000000091,-0.0392281745637888)"><svg viewBox="0 0 395.52 210.07845634912758" height="210.07845634912758" width="395.52"><g><svg viewBox="0 0 395.52 210.07845634912758" height="210.07845634912758" width="395.52"><g transform="matrix(1,0,0,1,0,126.79019537449423)"><svg viewBox="0 0 395.52 83.28826097463336" height="83.28826097463336" width="395.52"><g id="textblocktransform"><svg viewBox="0 0 395.52 83.28826097463336" height="83.28826097463336" width="395.52" id="textblock"><g><svg viewBox="0 0 395.52 49.50024020887729" height="49.50024020887729" width="395.52"><g transform="matrix(1,0,0,1,0,0)"><svg width="395.52" viewBox="2.3 -35.45 287.21999999999997 35.95" height="49.50024020887729" data-palette-color="#fffafe"><path d="M6.85 0.1L6.85 0.1Q2.3 0.1 2.3-0.9L2.3-0.9 2.3-33.3Q2.3-35 3.85-35L3.85-35 12.65-35Q20.05-35 23.33-31.95 26.6-28.9 26.6-23.1L26.6-23.1Q26.6-18.3 23.5-14.3L23.5-14.3Q21.95-12.3 18.95-11.1 15.95-9.9 11.95-9.9L11.95-9.9 11.95-0.95Q11.95-0.35 10.08-0.13 8.2 0.1 6.85 0.1ZM13-26.3L11.95-26.3 11.95-18.4 12.6-18.4Q14.35-18.4 15.55-19.5 16.75-20.6 16.75-22.6 16.75-24.6 15.93-25.45 15.1-26.3 13-26.3L13-26.3ZM58.2-33.9L58.2-0.85Q58.2 0 53.15 0 48.1 0 48.1-0.85L48.1-0.85 48.1-12.35 41.1-12.35 41.1-0.85Q41.1 0 36.05 0 31 0 31-0.85L31-0.85 31-34Q31-35.05 36.05-35.05 41.1-35.05 41.1-34L41.1-34 41.1-22.25 48.1-22.25 48.1-33.9Q48.1-34.6 50.6-34.9L50.6-34.9Q51.9-35 53.15-35L53.15-35 55.7-34.9Q58.2-34.6 58.2-33.9L58.2-33.9ZM67.55 0.1L67.55 0.1Q63 0.1 63-0.9L63-0.9 63-33.3Q63-35 64.55-35L64.55-35 73.35-35Q80.75-35 84.02-31.95 87.3-28.9 87.3-23.1L87.3-23.1Q87.3-18.3 84.2-14.3L84.2-14.3Q82.65-12.3 79.65-11.1 76.65-9.9 72.65-9.9L72.65-9.9 72.65-0.95Q72.65-0.35 70.77-0.13 68.9 0.1 67.55 0.1ZM73.7-26.3L72.65-26.3 72.65-18.4 73.3-18.4Q75.05-18.4 76.25-19.5 77.45-20.6 77.45-22.6 77.45-24.6 76.62-25.45 75.8-26.3 73.7-26.3L73.7-26.3ZM96.74-1.05L87.99-34.35Q87.99-34.6 90.17-34.83 92.34-35.05 93.74-35.05L93.74-35.05Q99.29-35.05 99.54-33.6L99.54-33.6 103.84-11.6 107.89-33.6Q108.19-35.05 114.09-35.05L114.09-35.05Q115.54-35.05 117.74-34.85 119.94-34.65 119.94-34.4L119.94-34.4 111.09-1.3Q110.89-0.5 108.14-0.25L108.14-0.25Q103.89 0.2 100.42-0.08 96.94-0.35 96.74-1.05L96.74-1.05ZM124.14-18.15L124.14-18.15Q122.74-20.65 122.74-22.23 122.74-23.8 123.59-24.25L123.59-24.25Q126.44-25.5 131.42-25.5 136.39-25.5 138.44-23.18 140.49-20.85 140.49-16.3L140.49-16.3 140.49-8.4 142.19-8.4Q143.04-8.4 143.52-7.4 143.99-6.4 143.99-4.65 143.99-2.9 143.12-1.2 142.24 0.5 140.74 0.5L140.74 0.5Q138.04 0.5 136.39-0.95L136.39-0.95Q135.64-1.55 135.24-2.4L135.24-2.4Q132.94 0.5 128.09 0.5L128.09 0.5Q124.44 0.5 121.94-2.1 119.44-4.7 119.44-8.25L119.44-8.25Q119.44-16.4 129.19-16.4L129.19-16.4 131.94-16.4 131.94-16.9Q131.94-18.2 131.52-18.57 131.09-18.95 129.54-18.95L129.54-18.95Q127.64-18.95 124.14-18.15ZM128.14-8.95L128.14-8.95Q128.14-7.85 128.74-7.28 129.34-6.7 130.27-6.7 131.19-6.7 131.94-7.45L131.94-7.45 131.94-11.3 130.54-11.3Q128.14-11.3 128.14-8.95ZM155.94-34.65L155.94-0.4Q155.94 0.05 150.84 0.05L150.84 0.05Q146.84 0 146.84-0.35L146.84-0.35 146.84-34.4Q146.84-35.15 151.69-35.15L151.69-35.15Q155.94-35 155.94-34.65L155.94-34.65ZM169.59-24.85L169.59-0.3Q169.59 0.1 165.01 0.1 160.44 0.1 160.44-0.25L160.44-0.25 160.44-24.8Q160.44-25.15 165.01-25.15 169.59-25.15 169.59-24.85L169.59-24.85ZM169.59-35.15L169.59-27.8Q169.59-27.45 165.01-27.45 160.44-27.45 160.44-27.75L160.44-27.75 160.44-34.95Q160.44-35.45 165.01-35.45 169.59-35.45 169.59-35.15L169.59-35.15ZM186.73-25.2L186.73-34.7Q186.73-35.45 190.68-35.45L190.68-35.45Q192.03-35.45 193.81-35.27 195.58-35.1 195.58-34.8L195.58-34.8 195.58-8.45 197.33-8.45Q198.58-8.45 198.98-6.2L198.98-6.2Q199.08-5.55 199.08-4.42 199.08-3.3 198.38-1.7L198.38-1.7Q197.38 0.5 195.18 0.5L195.18 0.5Q193.53 0.5 192.26-0.15 190.98-0.8 190.53-1.5L190.53-1.5 190.08-2.15Q187.33 0.5 183.18 0.5 179.03 0.5 176.08-2.95 173.13-6.4 173.13-12.58 173.13-18.75 176.23-22.13 179.33-25.5 183.98-25.5L183.98-25.5Q185.33-25.5 186.73-25.2L186.73-25.2ZM185.08-17.5L185.08-17.5Q182.28-17.5 182.28-12.45L182.28-12.45Q182.28-9.9 183.08-8.78 183.88-7.65 184.86-7.65 185.83-7.65 186.73-8.5L186.73-8.5 186.73-17Q185.88-17.5 185.08-17.5ZM205.48-18.15L205.48-18.15Q204.08-20.65 204.08-22.23 204.08-23.8 204.93-24.25L204.93-24.25Q207.78-25.5 212.76-25.5 217.73-25.5 219.78-23.18 221.83-20.85 221.83-16.3L221.83-16.3 221.83-8.4 223.53-8.4Q224.38-8.4 224.86-7.4 225.33-6.4 225.33-4.65 225.33-2.9 224.46-1.2 223.58 0.5 222.08 0.5L222.08 0.5Q219.38 0.5 217.73-0.95L217.73-0.95Q216.98-1.55 216.58-2.4L216.58-2.4Q214.28 0.5 209.43 0.5L209.43 0.5Q205.78 0.5 203.28-2.1 200.78-4.7 200.78-8.25L200.78-8.25Q200.78-16.4 210.53-16.4L210.53-16.4 213.28-16.4 213.28-16.9Q213.28-18.2 212.86-18.57 212.43-18.95 210.88-18.95L210.88-18.95Q208.98-18.95 205.48-18.15ZM209.48-8.95L209.48-8.95Q209.48-7.85 210.08-7.28 210.68-6.7 211.61-6.7 212.53-6.7 213.28-7.45L213.28-7.45 213.28-11.3 211.88-11.3Q209.48-11.3 209.48-8.95ZM239.68-18L239.68-0.3Q239.68 0.3 235.48 0.3L235.48 0.3Q230.48 0.1 230.48-0.35L230.48-0.35 230.48-18.05 227.93-18.05Q226.93-18.05 226.93-21.5L226.93-21.5Q226.93-22.4 227.1-23.7 227.28-25 227.83-25L227.83-25 230.48-25 230.48-29.4Q230.48-30.4 234.7-30.4 238.93-30.4 238.93-29.6L238.93-29.6 238.93-26.4 238.98-25 243.23-25Q244.08-25 244.08-21.5 244.08-18 243.23-18L243.23-18 239.68-18ZM248.75-2.95Q245.63-6.4 245.63-12.5 245.63-18.6 248.75-22.05 251.88-25.5 257.18-25.5 262.48-25.5 265.58-22.05 268.68-18.6 268.68-12.5 268.68-6.4 265.58-2.95 262.48 0.5 257.18 0.5 251.88 0.5 248.75-2.95ZM257.2-17.15Q254.38-17.15 254.38-12.55 254.38-7.95 257.2-7.95 260.03-7.95 260.03-12.55 260.03-17.15 257.2-17.15ZM283.17-14L283.17-0.05Q283.17 0.3 278.62 0.3L278.62 0.3Q274.07 0.2 274.07-0.1L274.07-0.1 274.07-16.7 272.72-16.7Q271.92-16.7 271.45-17.68 270.97-18.65 270.97-20.1L270.97-20.1Q270.97-25.5 274.17-25.5L274.17-25.5Q276.42-25.5 277.92-24.13 279.42-22.75 279.42-21L279.42-21Q280.47-23.05 282.25-24.28 284.02-25.5 285.87-25.5L285.87-25.5Q288.77-25.5 289.37-24L289.37-24Q289.52-23.6 289.52-22.83 289.52-22.05 289.05-20.05 288.57-18.05 288.07-17.15 287.57-16.25 287.47-16.25 287.37-16.25 286.55-16.63 285.72-17 285.07-17L285.07-17Q283.17-17 283.17-14L283.17-14Z" opacity="1" transform="matrix(1,0,0,1,0,0)" fill="#fffafe" class="wordmark-text-0" data-fill-palette-color="primary" id="text-0"/></svg></g></svg></g><g transform="matrix(1,0,0,1,0,61.1860589164282)"><svg viewBox="0 0 395.52 22.102202058205158" height="22.102202058205158" width="395.52"><g transform="matrix(1,0,0,1,0,0)"><svg width="395.52" viewBox="1.75 -39.65 903.58 50.5" height="22.102202058205158" data-palette-color="#fffafe"><path d="M20.2-2.1Q23-2.05 25.05-1.18 27.1-0.3 28.95 1.4L28.95 1.4 24.95 6.25Q22.8 3.4 20.33 1.98 17.85 0.55 14.1 0.55L14.1 0.55Q8.35 0.55 5.05-3.98 1.75-8.5 1.75-17.25L1.75-17.25Q1.75-26.1 5.08-30.68 8.4-35.25 14.45-35.25L14.45-35.25Q20.5-35.25 23.83-30.75 27.15-26.25 27.15-17.3L27.15-17.3Q27.15-11.1 25.3-7.6 23.45-4.1 20.2-2.1L20.2-2.1ZM8.45-17.25Q8.45-10.1 9.95-7.13 11.45-4.15 14.45-4.15L14.45-4.15Q17.55-4.15 19.03-7.1 20.5-10.05 20.5-17.3L20.5-17.3Q20.5-24.45 19.03-27.45 17.55-30.45 14.45-30.45L14.45-30.45Q11.4-30.45 9.93-27.45 8.45-24.45 8.45-17.25L8.45-17.25ZM49.9-26.45L49.9 0 44.55 0 44.25-3.35Q43-1.3 41.45-0.28 39.9 0.75 37.85 0.75L37.85 0.75Q34.95 0.75 33.27-1.3 31.6-3.35 31.6-6.65L31.6-6.65 31.6-26.45 37.75-26.45 37.75-7Q37.75-3.9 39.85-3.9L39.85-3.9Q41.05-3.9 42-4.83 42.95-5.75 43.75-7.45L43.75-7.45 43.75-26.45 49.9-26.45ZM55.6-26.45L61.75-26.45 61.75 0 55.6 0 55.6-26.45ZM58.65-39.65Q60.3-39.65 61.32-38.6 62.35-37.55 62.35-35.9L62.35-35.9Q62.35-34.3 61.32-33.25 60.3-32.2 58.65-32.2L58.65-32.2Q57-32.2 55.97-33.25 54.95-34.3 54.95-35.9L54.95-35.9Q54.95-37.55 55.97-38.6 57-39.65 58.65-39.65L58.65-39.65ZM76.94-27.15Q79.09-27.15 80.84-26.43 82.59-25.7 84.19-24.15L84.19-24.15 81.54-20.65Q80.44-21.55 79.47-21.98 78.49-22.4 77.34-22.4L77.34-22.4Q75.09-22.4 73.94-20.28 72.79-18.15 72.79-13.1L72.79-13.1Q72.79-8.2 73.97-6.2 75.14-4.2 77.34-4.2L77.34-4.2Q78.44-4.2 79.34-4.6 80.24-5 81.44-5.85L81.44-5.85 84.19-2.3Q80.99 0.75 77.04 0.75L77.04 0.75Q71.94 0.75 69.12-2.73 66.29-6.2 66.29-13L66.29-13Q66.29-17.4 67.59-20.6 68.89-23.8 71.32-25.48 73.74-27.15 76.94-27.15L76.94-27.15ZM87.24-37.05L93.39-37.7 93.39 0 87.24 0 87.24-37.05ZM100.74-26.45L106.74-26.45 99.74-14.75 107.34 0 100.74 0 93.64-14.45 100.74-26.45ZM115.49 0.75Q112.79 0.75 111.21-0.93 109.64-2.6 109.64-5.4L109.64-5.4 109.64-37.05 115.79-37.7 115.79-5.65Q115.79-5 116.09-4.6 116.39-4.2 116.99-4.2L116.99-4.2Q117.34-4.2 117.66-4.3 117.99-4.4 118.09-4.4L118.09-4.4 119.29-0.2Q117.59 0.75 115.49 0.75L115.49 0.75ZM140.99-26.45L133.99 0.1Q132.69 4.9 129.79 7.65 126.89 10.4 122.04 10.85L122.04 10.85 121.34 6.5Q124.49 5.85 126.06 4.42 127.64 3 128.54 0L128.54 0 126.24 0 119.54-26.45 125.79-26.45 130.19-4.1 134.89-26.45 140.99-26.45ZM166.13-26.45L172.18-26.45 165.28 0 158.03 0 150.93-26.45 157.28-26.45 161.63-4.95 166.13-26.45ZM191.98-6.4Q191.98-5.1 192.33-4.48 192.68-3.85 193.48-3.45L193.48-3.45 192.23 0.65Q190.18 0.4 188.95-0.45 187.73-1.3 187.13-3.05L187.13-3.05Q184.83 0.75 180.68 0.75L180.68 0.75Q177.38 0.75 175.43-1.48 173.48-3.7 173.48-7.4L173.48-7.4Q173.48-11.7 176.15-13.95 178.83-16.2 183.93-16.2L183.93-16.2 185.98-16.2 185.98-18.05Q185.98-20.55 185.1-21.58 184.23-22.6 182.28-22.6L182.28-22.6Q179.93-22.6 176.43-21.3L176.43-21.3 175.03-25.3Q177.03-26.2 179.18-26.68 181.33-27.15 183.28-27.15L183.28-27.15Q191.98-27.15 191.98-18.35L191.98-18.35 191.98-6.4ZM182.33-3.7Q184.73-3.7 185.98-7L185.98-7 185.98-12.55 184.53-12.55Q181.98-12.55 180.8-11.4 179.63-10.25 179.63-7.85L179.63-7.85Q179.63-5.8 180.33-4.75 181.03-3.7 182.33-3.7L182.33-3.7ZM203.38 0.75Q200.68 0.75 199.1-0.93 197.53-2.6 197.53-5.4L197.53-5.4 197.53-37.05 203.68-37.7 203.68-5.65Q203.68-5 203.98-4.6 204.28-4.2 204.88-4.2L204.88-4.2Q205.23-4.2 205.55-4.3 205.88-4.4 205.98-4.4L205.98-4.4 207.18-0.2Q205.48 0.75 203.38 0.75L203.38 0.75ZM210.22-26.45L216.37-26.45 216.37 0 210.22 0 210.22-26.45ZM213.27-39.65Q214.92-39.65 215.95-38.6 216.97-37.55 216.97-35.9L216.97-35.9Q216.97-34.3 215.95-33.25 214.92-32.2 213.27-32.2L213.27-32.2Q211.62-32.2 210.6-33.25 209.57-34.3 209.57-35.9L209.57-35.9Q209.57-37.55 210.6-38.6 211.62-39.65 213.27-39.65L213.27-39.65ZM235.02-37.7L241.17-37.05 241.17 0 235.72 0 235.42-3.05Q233.07 0.75 229.37 0.75L229.37 0.75Q225.27 0.75 223.09-2.93 220.92-6.6 220.92-13.2L220.92-13.2Q220.92-17.4 222.04-20.58 223.17-23.75 225.17-25.45 227.17-27.15 229.77-27.15L229.77-27.15Q232.97-27.15 235.02-24.5L235.02-24.5 235.02-37.7ZM231.12-3.9Q232.27-3.9 233.19-4.7 234.12-5.5 235.02-7L235.02-7 235.02-19.85Q233.42-22.55 231.37-22.55L231.37-22.55Q227.32-22.55 227.32-13.25L227.32-13.25Q227.32-8.2 228.32-6.05 229.32-3.9 231.12-3.9L231.12-3.9ZM263.77-6.4Q263.77-5.1 264.12-4.48 264.47-3.85 265.27-3.45L265.27-3.45 264.02 0.65Q261.97 0.4 260.74-0.45 259.52-1.3 258.92-3.05L258.92-3.05Q256.62 0.75 252.47 0.75L252.47 0.75Q249.17 0.75 247.22-1.48 245.27-3.7 245.27-7.4L245.27-7.4Q245.27-11.7 247.94-13.95 250.62-16.2 255.72-16.2L255.72-16.2 257.77-16.2 257.77-18.05Q257.77-20.55 256.89-21.58 256.02-22.6 254.07-22.6L254.07-22.6Q251.72-22.6 248.22-21.3L248.22-21.3 246.82-25.3Q248.82-26.2 250.97-26.68 253.12-27.15 255.07-27.15L255.07-27.15Q263.77-27.15 263.77-18.35L263.77-18.35 263.77-6.4ZM254.12-3.7Q256.52-3.7 257.77-7L257.77-7 257.77-12.55 256.32-12.55Q253.77-12.55 252.59-11.4 251.42-10.25 251.42-7.85L251.42-7.85Q251.42-5.8 252.12-4.75 252.82-3.7 254.12-3.7L254.12-3.7ZM280.72-5L282.87-1.2Q280.42 0.75 277.12 0.75L277.12 0.75Q273.67 0.75 271.87-1.23 270.07-3.2 270.07-6.6L270.07-6.6 270.07-22 266.97-22 266.97-26.45 270.07-26.45 270.07-32.3 276.22-33.05 276.22-26.45 281.22-26.45 280.62-22 276.22-22 276.22-6.6Q276.22-4.2 278.27-4.2L278.27-4.2Q278.92-4.2 279.42-4.38 279.92-4.55 280.72-5L280.72-5ZM304.26-13.85Q304.26-13.4 304.11-11.3L304.11-11.3 290.46-11.3Q290.66-7.2 291.89-5.58 293.11-3.95 295.36-3.95L295.36-3.95Q296.91-3.95 298.16-4.48 299.41-5 300.86-6.15L300.86-6.15 303.41-2.65Q299.91 0.75 295.01 0.75L295.01 0.75Q289.81 0.75 287.04-2.85 284.26-6.45 284.26-13L284.26-13Q284.26-19.55 286.91-23.35 289.56-27.15 294.41-27.15L294.41-27.15Q299.06-27.15 301.66-23.78 304.26-20.4 304.26-13.85L304.26-13.85ZM298.26-15.3L298.26-15.65Q298.26-19.4 297.36-21.13 296.46-22.85 294.46-22.85L294.46-22.85Q292.61-22.85 291.64-21.18 290.66-19.5 290.46-15.3L290.46-15.3 298.26-15.3ZM337.06-26.45L330.06 0.1Q328.76 4.9 325.86 7.65 322.96 10.4 318.11 10.85L318.11 10.85 317.41 6.5Q320.56 5.85 322.13 4.42 323.71 3 324.61 0L324.61 0 322.31 0 315.61-26.45 321.86-26.45 326.26-4.1 330.96-26.45 337.06-26.45ZM349.36-27.15Q354.36-27.15 357.13-23.65 359.91-20.15 359.91-13.25L359.91-13.25Q359.91-6.65 357.11-2.95 354.31 0.75 349.36 0.75L349.36 0.75Q344.41 0.75 341.61-2.88 338.81-6.5 338.81-13.25L338.81-13.25Q338.81-19.95 341.61-23.55 344.41-27.15 349.36-27.15L349.36-27.15ZM349.36-22.5Q347.21-22.5 346.21-20.38 345.21-18.25 345.21-13.25L345.21-13.25Q345.21-8.2 346.21-6.08 347.21-3.95 349.36-3.95L349.36-3.95Q351.51-3.95 352.51-6.08 353.51-8.2 353.51-13.25L353.51-13.25Q353.51-18.3 352.51-20.4 351.51-22.5 349.36-22.5L349.36-22.5ZM382.6-26.45L382.6 0 377.25 0 376.95-3.35Q375.7-1.3 374.15-0.28 372.6 0.75 370.55 0.75L370.55 0.75Q367.65 0.75 365.98-1.3 364.3-3.35 364.3-6.65L364.3-6.65 364.3-26.45 370.45-26.45 370.45-7Q370.45-3.9 372.55-3.9L372.55-3.9Q373.75-3.9 374.7-4.83 375.65-5.75 376.45-7.45L376.45-7.45 376.45-26.45 382.6-26.45ZM399.95-27.1Q401.1-27.1 402-26.75L402-26.75 401-20.85Q400-21.1 399.15-21.1L399.15-21.1Q397.25-21.1 396.15-19.45 395.05-17.8 394.45-14.55L394.45-14.55 394.45 0 388.3 0 388.3-26.45 393.65-26.45 394.1-21.85Q395.95-27.1 399.95-27.1L399.95-27.1ZM427.65-37.7L433.8-37.05 433.8 0 428.35 0 428.05-3.05Q425.7 0.75 422 0.75L422 0.75Q417.9 0.75 415.72-2.93 413.55-6.6 413.55-13.2L413.55-13.2Q413.55-17.4 414.67-20.58 415.8-23.75 417.8-25.45 419.8-27.15 422.4-27.15L422.4-27.15Q425.6-27.15 427.65-24.5L427.65-24.5 427.65-37.7ZM423.75-3.9Q424.9-3.9 425.82-4.7 426.75-5.5 427.65-7L427.65-7 427.65-19.85Q426.05-22.55 424-22.55L424-22.55Q419.95-22.55 419.95-13.25L419.95-13.25Q419.95-8.2 420.95-6.05 421.95-3.9 423.75-3.9L423.75-3.9ZM456.39-6.4Q456.39-5.1 456.74-4.48 457.09-3.85 457.89-3.45L457.89-3.45 456.64 0.65Q454.59 0.4 453.37-0.45 452.14-1.3 451.54-3.05L451.54-3.05Q449.24 0.75 445.09 0.75L445.09 0.75Q441.79 0.75 439.84-1.48 437.89-3.7 437.89-7.4L437.89-7.4Q437.89-11.7 440.57-13.95 443.24-16.2 448.34-16.2L448.34-16.2 450.39-16.2 450.39-18.05Q450.39-20.55 449.52-21.58 448.64-22.6 446.69-22.6L446.69-22.6Q444.34-22.6 440.84-21.3L440.84-21.3 439.44-25.3Q441.44-26.2 443.59-26.68 445.74-27.15 447.69-27.15L447.69-27.15Q456.39-27.15 456.39-18.35L456.39-18.35 456.39-6.4ZM446.74-3.7Q449.14-3.7 450.39-7L450.39-7 450.39-12.55 448.94-12.55Q446.39-12.55 445.22-11.4 444.04-10.25 444.04-7.85L444.04-7.85Q444.04-5.8 444.74-4.75 445.44-3.7 446.74-3.7L446.74-3.7ZM473.34-5L475.49-1.2Q473.04 0.75 469.74 0.75L469.74 0.75Q466.29 0.75 464.49-1.23 462.69-3.2 462.69-6.6L462.69-6.6 462.69-22 459.59-22 459.59-26.45 462.69-26.45 462.69-32.3 468.84-33.05 468.84-26.45 473.84-26.45 473.24-22 468.84-22 468.84-6.6Q468.84-4.2 470.89-4.2L470.89-4.2Q471.54-4.2 472.04-4.38 472.54-4.55 473.34-5L473.34-5ZM494.94-6.4Q494.94-5.1 495.29-4.48 495.64-3.85 496.44-3.45L496.44-3.45 495.19 0.65Q493.14 0.4 491.91-0.45 490.69-1.3 490.09-3.05L490.09-3.05Q487.79 0.75 483.64 0.75L483.64 0.75Q480.34 0.75 478.39-1.48 476.44-3.7 476.44-7.4L476.44-7.4Q476.44-11.7 479.11-13.95 481.79-16.2 486.89-16.2L486.89-16.2 488.94-16.2 488.94-18.05Q488.94-20.55 488.06-21.58 487.19-22.6 485.24-22.6L485.24-22.6Q482.89-22.6 479.39-21.3L479.39-21.3 477.99-25.3Q479.99-26.2 482.14-26.68 484.29-27.15 486.24-27.15L486.24-27.15Q494.94-27.15 494.94-18.35L494.94-18.35 494.94-6.4ZM485.29-3.7Q487.69-3.7 488.94-7L488.94-7 488.94-12.55 487.49-12.55Q484.94-12.55 483.76-11.4 482.59-10.25 482.59-7.85L482.59-7.85Q482.59-5.8 483.29-4.75 483.99-3.7 485.29-3.7L485.29-3.7ZM510.58-26.45L516.73-26.45 516.73 0 510.58 0 510.58-26.45ZM513.63-39.65Q515.28-39.65 516.31-38.6 517.33-37.55 517.33-35.9L517.33-35.9Q517.33-34.3 516.31-33.25 515.28-32.2 513.63-32.2L513.63-32.2Q511.98-32.2 510.96-33.25 509.93-34.3 509.93-35.9L509.93-35.9Q509.93-37.55 510.96-38.6 511.98-39.65 513.63-39.65L513.63-39.65ZM534.78-27.15Q537.63-27.15 539.28-25.1 540.93-23.05 540.93-19.6L540.93-19.6 540.93 0 534.78 0 534.78-18.9Q534.78-20.8 534.26-21.63 533.73-22.45 532.73-22.45L532.73-22.45Q530.63-22.45 528.58-18.5L528.58-18.5 528.58 0 522.43 0 522.43-26.45 527.78-26.45 528.23-23Q529.58-25.1 531.11-26.13 532.63-27.15 534.78-27.15L534.78-27.15ZM575.18-13.85Q575.18-13.4 575.02-11.3L575.02-11.3 561.38-11.3Q561.58-7.2 562.8-5.58 564.02-3.95 566.27-3.95L566.27-3.95Q567.83-3.95 569.08-4.48 570.33-5 571.77-6.15L571.77-6.15 574.33-2.65Q570.83 0.75 565.93 0.75L565.93 0.75Q560.73 0.75 557.95-2.85 555.18-6.45 555.18-13L555.18-13Q555.18-19.55 557.83-23.35 560.48-27.15 565.33-27.15L565.33-27.15Q569.98-27.15 572.58-23.78 575.18-20.4 575.18-13.85L575.18-13.85ZM569.18-15.3L569.18-15.65Q569.18-19.4 568.27-21.13 567.38-22.85 565.38-22.85L565.38-22.85Q563.52-22.85 562.55-21.18 561.58-19.5 561.38-15.3L561.38-15.3 569.18-15.3ZM585.07 0.75Q582.37 0.75 580.8-0.93 579.22-2.6 579.22-5.4L579.22-5.4 579.22-37.05 585.37-37.7 585.37-5.65Q585.37-5 585.67-4.6 585.97-4.2 586.57-4.2L586.57-4.2Q586.92-4.2 587.25-4.3 587.57-4.4 587.67-4.4L587.67-4.4 588.87-0.2Q587.17 0.75 585.07 0.75L585.07 0.75ZM610.77-13.85Q610.77-13.4 610.62-11.3L610.62-11.3 596.97-11.3Q597.17-7.2 598.39-5.58 599.62-3.95 601.87-3.95L601.87-3.95Q603.42-3.95 604.67-4.48 605.92-5 607.37-6.15L607.37-6.15 609.92-2.65Q606.42 0.75 601.52 0.75L601.52 0.75Q596.32 0.75 593.54-2.85 590.77-6.45 590.77-13L590.77-13Q590.77-19.55 593.42-23.35 596.07-27.15 600.92-27.15L600.92-27.15Q605.57-27.15 608.17-23.78 610.77-20.4 610.77-13.85L610.77-13.85ZM604.77-15.3L604.77-15.65Q604.77-19.4 603.87-21.13 602.97-22.85 600.97-22.85L600.97-22.85Q599.12-22.85 598.14-21.18 597.17-19.5 596.97-15.3L596.97-15.3 604.77-15.3ZM627.27-27.15Q631.17-27.15 633.17-23.58 635.17-20 635.17-13.3L635.17-13.3Q635.17-6.8 632.89-3.03 630.62 0.75 626.57 0.75L626.57 0.75Q623.37 0.75 621.22-2.1L621.22-2.1 621.22 10.15 615.07 10.85 615.07-26.45 620.52-26.45 620.77-23.25Q622.07-25.25 623.67-26.2 625.27-27.15 627.27-27.15L627.27-27.15ZM624.92-3.95Q626.82-3.95 627.82-6.13 628.82-8.3 628.82-13.25L628.82-13.25Q628.82-18.45 627.97-20.5 627.12-22.55 625.32-22.55L625.32-22.55Q623.02-22.55 621.22-19.25L621.22-19.25 621.22-6.45Q622.82-3.95 624.92-3.95L624.92-3.95ZM652.11-27.15Q654.96-27.15 656.61-25.1 658.26-23.05 658.26-19.6L658.26-19.6 658.26 0 652.11 0 652.11-18.9Q652.11-20.8 651.59-21.63 651.06-22.45 650.06-22.45L650.06-22.45Q647.96-22.45 645.91-18.5L645.91-18.5 645.91 0 639.76 0 639.76-37 645.91-37.65 645.91-23.3Q647.16-25.25 648.64-26.2 650.11-27.15 652.11-27.15L652.11-27.15ZM680.71-6.4Q680.71-5.1 681.06-4.48 681.41-3.85 682.21-3.45L682.21-3.45 680.96 0.65Q678.91 0.4 677.69-0.45 676.46-1.3 675.86-3.05L675.86-3.05Q673.56 0.75 669.41 0.75L669.41 0.75Q666.11 0.75 664.16-1.48 662.21-3.7 662.21-7.4L662.21-7.4Q662.21-11.7 664.89-13.95 667.56-16.2 672.66-16.2L672.66-16.2 674.71-16.2 674.71-18.05Q674.71-20.55 673.84-21.58 672.96-22.6 671.01-22.6L671.01-22.6Q668.66-22.6 665.16-21.3L665.16-21.3 663.76-25.3Q665.76-26.2 667.91-26.68 670.06-27.15 672.01-27.15L672.01-27.15Q680.71-27.15 680.71-18.35L680.71-18.35 680.71-6.4ZM671.06-3.7Q673.46-3.7 674.71-7L674.71-7 674.71-12.55 673.26-12.55Q670.71-12.55 669.54-11.4 668.36-10.25 668.36-7.85L668.36-7.85Q668.36-5.8 669.06-4.75 669.76-3.7 671.06-3.7L671.06-3.7ZM698.86-27.15Q701.71-27.15 703.36-25.1 705.01-23.05 705.01-19.6L705.01-19.6 705.01 0 698.86 0 698.86-18.9Q698.86-20.8 698.33-21.63 697.81-22.45 696.81-22.45L696.81-22.45Q694.71-22.45 692.66-18.5L692.66-18.5 692.66 0 686.51 0 686.51-26.45 691.86-26.45 692.31-23Q693.66-25.1 695.18-26.13 696.71-27.15 698.86-27.15L698.86-27.15ZM721.71-5L723.86-1.2Q721.41 0.75 718.11 0.75L718.11 0.75Q714.66 0.75 712.86-1.23 711.06-3.2 711.06-6.6L711.06-6.6 711.06-22 707.96-22 707.96-26.45 711.06-26.45 711.06-32.3 717.21-33.05 717.21-26.45 722.21-26.45 721.61-22 717.21-22 717.21-6.6Q717.21-4.2 719.26-4.2L719.26-4.2Q719.91-4.2 720.41-4.38 720.91-4.55 721.71-5L721.71-5ZM741.85 0.75Q739.15 0.75 737.58-0.93 736-2.6 736-5.4L736-5.4 736-37.05 742.15-37.7 742.15-5.65Q742.15-5 742.45-4.6 742.75-4.2 743.35-4.2L743.35-4.2Q743.7-4.2 744.03-4.3 744.35-4.4 744.45-4.4L744.45-4.4 745.65-0.2Q743.95 0.75 741.85 0.75L741.85 0.75ZM765.6-6.4Q765.6-5.1 765.95-4.48 766.3-3.85 767.1-3.45L767.1-3.45 765.85 0.65Q763.8 0.4 762.57-0.45 761.35-1.3 760.75-3.05L760.75-3.05Q758.45 0.75 754.3 0.75L754.3 0.75Q751 0.75 749.05-1.48 747.1-3.7 747.1-7.4L747.1-7.4Q747.1-11.7 749.77-13.95 752.45-16.2 757.55-16.2L757.55-16.2 759.6-16.2 759.6-18.05Q759.6-20.55 758.72-21.58 757.85-22.6 755.9-22.6L755.9-22.6Q753.55-22.6 750.05-21.3L750.05-21.3 748.65-25.3Q750.65-26.2 752.8-26.68 754.95-27.15 756.9-27.15L756.9-27.15Q765.6-27.15 765.6-18.35L765.6-18.35 765.6-6.4ZM755.95-3.7Q758.35-3.7 759.6-7L759.6-7 759.6-12.55 758.15-12.55Q755.6-12.55 754.42-11.4 753.25-10.25 753.25-7.85L753.25-7.85Q753.25-5.8 753.95-4.75 754.65-3.7 755.95-3.7L755.95-3.7ZM783.75-27.15Q786.6-27.15 788.25-25.1 789.9-23.05 789.9-19.6L789.9-19.6 789.9 0 783.75 0 783.75-18.9Q783.75-20.8 783.22-21.63 782.7-22.45 781.7-22.45L781.7-22.45Q779.6-22.45 777.55-18.5L777.55-18.5 777.55 0 771.4 0 771.4-26.45 776.75-26.45 777.2-23Q778.55-25.1 780.07-26.13 781.6-27.15 783.75-27.15L783.75-27.15ZM813.39-29.85L814.94-25.1Q813.89-24.6 812.42-24.4 810.94-24.2 808.74-24.2L808.74-24.2Q810.84-23.2 811.87-21.53 812.89-19.85 812.89-17.4L812.89-17.4Q812.89-13.4 810.44-10.95 807.99-8.5 803.79-8.5L803.79-8.5Q802.54-8.5 801.24-8.9L801.24-8.9Q800.34-8.15 800.34-6.85L800.34-6.85Q800.34-5.85 800.89-5.35 801.44-4.85 802.94-4.85L802.94-4.85 805.74-4.85Q809.74-4.85 812.09-2.78 814.44-0.7 814.44 2.5L814.44 2.5Q814.44 6.3 811.52 8.58 808.59 10.85 803.19 10.85L803.19 10.85Q797.49 10.85 795.22 8.75 792.94 6.65 792.94 2.6L792.94 2.6 798.39 2.6Q798.39 4.75 799.39 5.65 800.39 6.55 803.24 6.55L803.24 6.55Q805.99 6.55 807.14 5.6 808.29 4.65 808.29 2.9L808.29 2.9Q808.29 1.2 807.34 0.4 806.39-0.4 804.39-0.4L804.39-0.4 802.49-0.4Q798.69-0.4 796.94-1.75 795.19-3.1 795.19-5.45L795.19-5.45Q795.19-6.8 795.92-8.03 796.64-9.25 797.89-10.2L797.89-10.2Q795.84-11.5 794.89-13.3 793.94-15.1 793.94-17.7L793.94-17.7Q793.94-22.05 796.54-24.58 799.14-27.1 803.54-27.1L803.54-27.1Q806.79-27.1 808.92-27.8 811.04-28.5 813.39-29.85L813.39-29.85ZM803.54-23Q801.79-23 800.89-21.75 799.99-20.5 799.99-17.8L799.99-17.8Q799.99-15.25 800.89-13.88 801.79-12.5 803.49-12.5L803.49-12.5Q805.24-12.5 806.09-13.73 806.94-14.95 806.94-17.85L806.94-17.85Q806.94-20.55 806.12-21.78 805.29-23 803.54-23L803.54-23ZM835.84-26.45L835.84 0 830.49 0 830.19-3.35Q828.94-1.3 827.39-0.28 825.84 0.75 823.79 0.75L823.79 0.75Q820.89 0.75 819.22-1.3 817.54-3.35 817.54-6.65L817.54-6.65 817.54-26.45 823.69-26.45 823.69-7Q823.69-3.9 825.79-3.9L825.79-3.9Q826.99-3.9 827.94-4.83 828.89-5.75 829.69-7.45L829.69-7.45 829.69-26.45 835.84-26.45ZM858.44-6.4Q858.44-5.1 858.79-4.48 859.14-3.85 859.94-3.45L859.94-3.45 858.69 0.65Q856.64 0.4 855.41-0.45 854.19-1.3 853.59-3.05L853.59-3.05Q851.29 0.75 847.14 0.75L847.14 0.75Q843.84 0.75 841.89-1.48 839.94-3.7 839.94-7.4L839.94-7.4Q839.94-11.7 842.61-13.95 845.29-16.2 850.39-16.2L850.39-16.2 852.44-16.2 852.44-18.05Q852.44-20.55 851.56-21.58 850.69-22.6 848.74-22.6L848.74-22.6Q846.39-22.6 842.89-21.3L842.89-21.3 841.49-25.3Q843.49-26.2 845.64-26.68 847.79-27.15 849.74-27.15L849.74-27.15Q858.44-27.15 858.44-18.35L858.44-18.35 858.44-6.4ZM848.79-3.7Q851.19-3.7 852.44-7L852.44-7 852.44-12.55 850.99-12.55Q848.44-12.55 847.26-11.4 846.09-10.25 846.09-7.85L846.09-7.85Q846.09-5.8 846.79-4.75 847.49-3.7 848.79-3.7L848.79-3.7ZM882.19-29.85L883.74-25.1Q882.69-24.6 881.21-24.4 879.74-24.2 877.54-24.2L877.54-24.2Q879.64-23.2 880.66-21.53 881.69-19.85 881.69-17.4L881.69-17.4Q881.69-13.4 879.24-10.95 876.79-8.5 872.59-8.5L872.59-8.5Q871.34-8.5 870.04-8.9L870.04-8.9Q869.14-8.15 869.14-6.85L869.14-6.85Q869.14-5.85 869.69-5.35 870.24-4.85 871.74-4.85L871.74-4.85 874.54-4.85Q878.54-4.85 880.89-2.78 883.24-0.7 883.24 2.5L883.24 2.5Q883.24 6.3 880.31 8.58 877.39 10.85 871.99 10.85L871.99 10.85Q866.29 10.85 864.01 8.75 861.74 6.65 861.74 2.6L861.74 2.6 867.19 2.6Q867.19 4.75 868.19 5.65 869.19 6.55 872.04 6.55L872.04 6.55Q874.79 6.55 875.94 5.6 877.09 4.65 877.09 2.9L877.09 2.9Q877.09 1.2 876.14 0.4 875.19-0.4 873.19-0.4L873.19-0.4 871.29-0.4Q867.49-0.4 865.74-1.75 863.99-3.1 863.99-5.45L863.99-5.45Q863.99-6.8 864.71-8.03 865.44-9.25 866.69-10.2L866.69-10.2Q864.64-11.5 863.69-13.3 862.74-15.1 862.74-17.7L862.74-17.7Q862.74-22.05 865.34-24.58 867.94-27.1 872.34-27.1L872.34-27.1Q875.59-27.1 877.71-27.8 879.84-28.5 882.19-29.85L882.19-29.85ZM872.34-23Q870.59-23 869.69-21.75 868.79-20.5 868.79-17.8L868.79-17.8Q868.79-15.25 869.69-13.88 870.59-12.5 872.29-12.5L872.29-12.5Q874.04-12.5 874.89-13.73 875.74-14.95 875.74-17.85L875.74-17.85Q875.74-20.55 874.91-21.78 874.09-23 872.34-23L872.34-23ZM905.33-13.85Q905.33-13.4 905.18-11.3L905.18-11.3 891.53-11.3Q891.73-7.2 892.96-5.58 894.18-3.95 896.43-3.95L896.43-3.95Q897.98-3.95 899.23-4.48 900.48-5 901.93-6.15L901.93-6.15 904.48-2.65Q900.98 0.75 896.08 0.75L896.08 0.75Q890.88 0.75 888.11-2.85 885.33-6.45 885.33-13L885.33-13Q885.33-19.55 887.98-23.35 890.63-27.15 895.48-27.15L895.48-27.15Q900.13-27.15 902.73-23.78 905.33-20.4 905.33-13.85L905.33-13.85ZM899.33-15.3L899.33-15.65Q899.33-19.4 898.43-21.13 897.53-22.85 895.53-22.85L895.53-22.85Q893.68-22.85 892.71-21.18 891.73-19.5 891.53-15.3L891.53-15.3 899.33-15.3Z" opacity="1" transform="matrix(1,0,0,1,0,0)" fill="#fffafe" class="slogan-text-1" data-fill-palette-color="secondary" id="text-1"/></svg></g></svg></g></svg></g></svg></g><g transform="matrix(1,0,0,1,140.20781166652833,0)"><svg viewBox="0 0 115.10437666694332 115.10437666694331" height="115.10437666694331" width="115.10437666694332"><g><svg/></g><g id="icon-0"><svg viewBox="0 0 115.10437666694332 115.10437666694331" height="115.10437666694331" width="115.10437666694332"><g><path transform="scale(1.15104,1.15104)" d="M30 100c-16.569 0-30-13.431-30-30v-40c0-16.569 13.431-30 30-30h40c16.569 0 30 13.431 30 30v40c0 16.569-13.431 30-30 30z" fill="#fffafe" fill-rule="nonzero" stroke="none" stroke-width="1" stroke-linecap="butt" stroke-linejoin="miter" stroke-miterlimit="10" stroke-dasharray="" stroke-dashoffset="0" font-family="none" font-weight="none" font-size="none" text-anchor="none" style="mix-blend-mode: normal" data-fill-palette-color="accent"/></g><g transform="matrix(1,0,0,1,23.020875333388673,23.020875333388666)"><svg viewBox="0 0 69.06262600016598 69.06262600016598" height="69.06262600016598" width="69.06262600016598"><g><svg xmlns="http://www.w3.org/2000/svg" xmlns:xlink="http://www.w3.org/1999/xlink" version="1.0" x="0" y="0" viewBox="0 0 32 32" enable-background="new 0 0 32 32" xml:space="preserve" height="69.06262600016598" width="69.06262600016598" class="icon-cg-0" data-fill-palette-color="quaternary" id="cg-0"><path d="M16 0C7.164 0 0 7.164 0 16s7.164 16 16 16 16-7.164 16-16S24.836 0 16 0zM14 22.002l-6-6 3-3 3 3 7-7 3 3L14 22.002z" fill="#00784a" data-fill-palette-color="quaternary"/></svg></g></svg></g></svg></g></svg></g><g/></svg></g><defs/></svg><rect width="395.52" height="210.07845634912758" fill="none" stroke="none" visibility="hidden"/></g></svg></g><script xmlns=""/></svg>